<mxfile host="app.diagrams.net" agent="Mozilla/5.0 (Windows NT 10.0; Win64; x64) AppleWebKit/537.36 (KHTML, like Gecko) Chrome/114.0.0.0 YaBrowser/23.7.1.1266 (corp) Yowser/2.5 Safari/537.36" version="28.2.5">
  <diagram name="Страница — 1" id="CQpJ5EQCwICfuH93qLQF">
    <mxGraphModel dx="2205" dy="796" grid="1" gridSize="10" guides="1" tooltips="1" connect="1" arrows="1" fold="1" page="1" pageScale="1" pageWidth="827" pageHeight="1169" math="0" shadow="0">
      <root>
        <mxCell id="0" />
        <mxCell id="1" parent="0" />
        <mxCell id="bQEJJnBmIu3E98YJRiuJ-1" value="" style="rounded=0;whiteSpace=wrap;html=1;" parent="1" vertex="1">
          <mxGeometry x="-550" y="280" width="540" height="740" as="geometry" />
        </mxCell>
        <mxCell id="bQEJJnBmIu3E98YJRiuJ-2" value="" style="group" parent="1" vertex="1" connectable="0">
          <mxGeometry x="-500" y="420" width="460" height="520" as="geometry" />
        </mxCell>
        <mxCell id="bQEJJnBmIu3E98YJRiuJ-3" value="" style="rounded=0;whiteSpace=wrap;html=1;" parent="bQEJJnBmIu3E98YJRiuJ-2" vertex="1">
          <mxGeometry x="20" y="100" width="120" height="60" as="geometry" />
        </mxCell>
        <mxCell id="bQEJJnBmIu3E98YJRiuJ-4" value="&lt;span style=&quot;color: rgba(0, 0, 0, 0); font-family: monospace; font-size: 0px; text-align: start; text-wrap-mode: nowrap;&quot;&gt;%3CmxGraphModel%3E%3Croot%3E%3CmxCell%20id%3D%220%22%2F%3E%3CmxCell%20id%3D%221%22%20parent%3D%220%22%2F%3E%3CmxCell%20id%3D%222%22%20value%3D%22%22%20style%3D%22group%22%20vertex%3D%221%22%20connectable%3D%220%22%20parent%3D%221%22%3E%3CmxGeometry%20x%3D%2290%22%20y%3D%22230%22%20width%3D%22460%22%20height%3D%22520%22%20as%3D%22geometry%22%2F%3E%3C%2FmxCell%3E%3CmxCell%20id%3D%223%22%20value%3D%22%22%20style%3D%22rounded%3D0%3BwhiteSpace%3Dwrap%3Bhtml%3D1%3B%22%20vertex%3D%221%22%20parent%3D%222%22%3E%3CmxGeometry%20x%3D%2220%22%20y%3D%22100%22%20width%3D%22120%22%20height%3D%2260%22%20as%3D%22geometry%22%2F%3E%3C%2FmxCell%3E%3CmxCell%20id%3D%224%22%20value%3D%22%22%20style%3D%22strokeWidth%3D2%3Bhtml%3D1%3Bshape%3Dmxgraph.flowchart.terminator%3BwhiteSpace%3Dwrap%3B%22%20vertex%3D%221%22%20parent%3D%222%22%3E%3CmxGeometry%20x%3D%2230%22%20width%3D%22100%22%20height%3D%2260%22%20as%3D%22geometry%22%2F%3E%3C%2FmxCell%3E%3CmxCell%20id%3D%225%22%20value%3D%22%22%20style%3D%22shape%3Dparallelogram%3Bperimeter%3DparallelogramPerimeter%3BwhiteSpace%3Dwrap%3Bhtml%3D1%3BfixedSize%3D1%3B%22%20vertex%3D%221%22%20parent%3D%222%22%3E%3CmxGeometry%20x%3D%2220%22%20y%3D%22208%22%20width%3D%22120%22%20height%3D%2260%22%20as%3D%22geometry%22%2F%3E%3C%2FmxCell%3E%3CmxCell%20id%3D%226%22%20value%3D%22%22%20style%3D%22shape%3Ddocument%3BwhiteSpace%3Dwrap%3Bhtml%3D1%3BboundedLbl%3D1%3B%22%20vertex%3D%221%22%20parent%3D%222%22%3E%3CmxGeometry%20x%3D%2220%22%20y%3D%22320%22%20width%3D%22120%22%20height%3D%2280%22%20as%3D%22geometry%22%2F%3E%3C%2FmxCell%3E%3CmxCell%20id%3D%227%22%20value%3D%22%22%20style%3D%22rhombus%3BwhiteSpace%3Dwrap%3Bhtml%3D1%3B%22%20vertex%3D%221%22%20parent%3D%222%22%3E%3CmxGeometry%20y%3D%22440%22%20width%3D%22160%22%20height%3D%2280%22%20as%3D%22geometry%22%2F%3E%3C%2FmxCell%3E%3CmxCell%20id%3D%228%22%20value%3D%22%26lt%3Bfont%26gt%3B%D0%9D%D0%B0%D1%87%D0%B0%D0%BB%D0%BE%2F%D0%BA%D0%BE%D0%BD%D0%B5%D1%86%26amp%3Bnbsp%3B%26lt%3B%2Ffont%26gt%3B%22%20style%3D%22text%3Bhtml%3D1%3Balign%3Dleft%3BverticalAlign%3Dmiddle%3BwhiteSpace%3Dwrap%3Brounded%3D0%3BfontSize%3D18%3B%22%20vertex%3D%221%22%20parent%3D%222%22%3E%3CmxGeometry%20x%3D%22180%22%20y%3D%2215%22%20width%3D%22180%22%20height%3D%2230%22%20as%3D%22geometry%22%2F%3E%3C%2FmxCell%3E%3CmxCell%20id%3D%229%22%20value%3D%22%26lt%3Bfont%26gt%3B%D0%9F%D1%80%D0%BE%D0%B8%D0%B7%D0%B2%D0%B5%D0%B4%D0%B5%D0%BD%D0%B8%D0%B5%20%D0%BA%D0%B0%D0%BA%D0%B8%D1%85-%D0%BB%D0%B8%D0%B1%D0%BE%20%D0%B4%D0%B5%D0%B9%D1%81%D1%82%D0%B2%D0%B8%D0%B9%2F%D0%B2%D1%8B%D1%87%D0%B8%D1%81%D0%BB%D0%B5%D0%BD%D0%B8%D0%B9%26lt%3B%2Ffont%26gt%3B%22%20style%3D%22text%3Bhtml%3D1%3Balign%3Dleft%3BverticalAlign%3Dmiddle%3BwhiteSpace%3Dwrap%3Brounded%3D0%3BfontSize%3D18%3B%22%20vertex%3D%221%22%20parent%3D%222%22%3E%3CmxGeometry%20x%3D%22180%22%20y%3D%22115%22%20width%3D%22280%22%20height%3D%2230%22%20as%3D%22geometry%22%2F%3E%3C%2FmxCell%3E%3CmxCell%20id%3D%2210%22%20value%3D%22%26lt%3Bfont%26gt%3B%D0%9E%D0%BF%D0%B5%D1%80%D0%B0%D1%86%D0%B8%D1%8F%20%D0%B2%D0%B2%D0%BE%D0%B4%D0%B0%26lt%3B%2Ffont%26gt%3B%22%20style%3D%22text%3Bhtml%3D1%3Balign%3Dleft%3BverticalAlign%3Dmiddle%3BwhiteSpace%3Dwrap%3Brounded%3D0%3BfontSize%3D18%3B%22%20vertex%3D%221%22%20parent%3D%222%22%3E%3CmxGeometry%20x%3D%22180%22%20y%3D%22223%22%20width%3D%22210%22%20height%3D%2230%22%20as%3D%22geometry%22%2F%3E%3C%2FmxCell%3E%3CmxCell%20id%3D%2211%22%20value%3D%22%26lt%3Bfont%26gt%3B%D0%9E%D0%BF%D0%B5%D1%80%D0%B0%D1%86%D0%B8%D1%8F%20%D0%B2%D1%8B%D0%B2%D0%BE%D0%B4%D0%B0%26lt%3B%2Ffont%26gt%3B%22%20style%3D%22text%3Bhtml%3D1%3Balign%3Dleft%3BverticalAlign%3Dmiddle%3BwhiteSpace%3Dwrap%3Brounded%3D0%3BfontSize%3D18%3B%22%20vertex%3D%221%22%20parent%3D%222%22%3E%3CmxGeometry%20x%3D%22180%22%20y%3D%22339.5%22%20width%3D%22210%22%20height%3D%2230%22%20as%3D%22geometry%22%2F%3E%3C%2FmxCell%3E%3CmxCell%20id%3D%2212%22%20value%3D%22%26lt%3Bfont%26gt%3B%D0%A3%D1%81%D0%BB%D0%BE%D0%B2%D0%BD%D1%8B%D0%B9%20%D0%BE%D0%BF%D0%B5%D1%80%D0%B0%D1%82%D0%BE%D1%80%26lt%3B%2Ffont%26gt%3B%22%20style%3D%22text%3Bhtml%3D1%3Balign%3Dleft%3BverticalAlign%3Dmiddle%3BwhiteSpace%3Dwrap%3Brounded%3D0%3BfontSize%3D18%3B%22%20vertex%3D%221%22%20parent%3D%222%22%3E%3CmxGeometry%20x%3D%22180%22%20y%3D%22465%22%20width%3D%22210%22%20height%3D%2230%22%20as%3D%22geometry%22%2F%3E%3C%2FmxCell%3E%3C%2Froot%3E%3C%2FmxGraphModel%3E&lt;/span&gt;" style="strokeWidth=2;html=1;shape=mxgraph.flowchart.terminator;whiteSpace=wrap;" parent="bQEJJnBmIu3E98YJRiuJ-2" vertex="1">
          <mxGeometry x="30" width="100" height="60" as="geometry" />
        </mxCell>
        <mxCell id="bQEJJnBmIu3E98YJRiuJ-5" value="" style="shape=parallelogram;perimeter=parallelogramPerimeter;whiteSpace=wrap;html=1;fixedSize=1;" parent="bQEJJnBmIu3E98YJRiuJ-2" vertex="1">
          <mxGeometry x="20" y="208" width="120" height="60" as="geometry" />
        </mxCell>
        <mxCell id="bQEJJnBmIu3E98YJRiuJ-6" value="" style="shape=document;whiteSpace=wrap;html=1;boundedLbl=1;" parent="bQEJJnBmIu3E98YJRiuJ-2" vertex="1">
          <mxGeometry x="20" y="320" width="120" height="80" as="geometry" />
        </mxCell>
        <mxCell id="bQEJJnBmIu3E98YJRiuJ-7" value="" style="rhombus;whiteSpace=wrap;html=1;" parent="bQEJJnBmIu3E98YJRiuJ-2" vertex="1">
          <mxGeometry y="440" width="160" height="80" as="geometry" />
        </mxCell>
        <mxCell id="bQEJJnBmIu3E98YJRiuJ-8" value="&lt;font&gt;Начало/конец&amp;nbsp;&lt;/font&gt;" style="text;html=1;align=left;verticalAlign=middle;whiteSpace=wrap;rounded=0;fontSize=18;" parent="bQEJJnBmIu3E98YJRiuJ-2" vertex="1">
          <mxGeometry x="180" y="15" width="180" height="30" as="geometry" />
        </mxCell>
        <mxCell id="bQEJJnBmIu3E98YJRiuJ-9" value="&lt;font&gt;Произведение каких-либо действий/вычислений&lt;/font&gt;" style="text;html=1;align=left;verticalAlign=middle;whiteSpace=wrap;rounded=0;fontSize=18;" parent="bQEJJnBmIu3E98YJRiuJ-2" vertex="1">
          <mxGeometry x="180" y="115" width="280" height="30" as="geometry" />
        </mxCell>
        <mxCell id="bQEJJnBmIu3E98YJRiuJ-10" value="&lt;font&gt;Операция ввода&lt;/font&gt;" style="text;html=1;align=left;verticalAlign=middle;whiteSpace=wrap;rounded=0;fontSize=18;" parent="bQEJJnBmIu3E98YJRiuJ-2" vertex="1">
          <mxGeometry x="180" y="223" width="210" height="30" as="geometry" />
        </mxCell>
        <mxCell id="bQEJJnBmIu3E98YJRiuJ-11" value="&lt;font&gt;Операция вывода&lt;/font&gt;" style="text;html=1;align=left;verticalAlign=middle;whiteSpace=wrap;rounded=0;fontSize=18;" parent="bQEJJnBmIu3E98YJRiuJ-2" vertex="1">
          <mxGeometry x="180" y="339.5" width="210" height="30" as="geometry" />
        </mxCell>
        <mxCell id="bQEJJnBmIu3E98YJRiuJ-12" value="&lt;font&gt;Условный оператор&lt;/font&gt;" style="text;html=1;align=left;verticalAlign=middle;whiteSpace=wrap;rounded=0;fontSize=18;" parent="bQEJJnBmIu3E98YJRiuJ-2" vertex="1">
          <mxGeometry x="180" y="465" width="210" height="30" as="geometry" />
        </mxCell>
        <mxCell id="bQEJJnBmIu3E98YJRiuJ-13" value="&lt;font&gt;&lt;b&gt;Легенда&lt;/b&gt;&lt;/font&gt;" style="text;html=1;align=center;verticalAlign=middle;whiteSpace=wrap;rounded=0;fontSize=28;" parent="1" vertex="1">
          <mxGeometry x="-350" y="340" width="120" height="30" as="geometry" />
        </mxCell>
        <mxCell id="bQEJJnBmIu3E98YJRiuJ-14" value="temp = A" style="rounded=0;whiteSpace=wrap;html=1;fontSize=16;" parent="1" vertex="1">
          <mxGeometry x="426" y="390" width="140" height="60" as="geometry" />
        </mxCell>
        <mxCell id="bQEJJnBmIu3E98YJRiuJ-15" style="edgeStyle=orthogonalEdgeStyle;rounded=0;orthogonalLoop=1;jettySize=auto;html=1;fontSize=16;" parent="1" source="bQEJJnBmIu3E98YJRiuJ-16" target="bQEJJnBmIu3E98YJRiuJ-14" edge="1">
          <mxGeometry relative="1" as="geometry" />
        </mxCell>
        <mxCell id="bQEJJnBmIu3E98YJRiuJ-16" value="A,B" style="shape=parallelogram;perimeter=parallelogramPerimeter;whiteSpace=wrap;html=1;fixedSize=1;fontSize=16;" parent="1" vertex="1">
          <mxGeometry x="426" y="290" width="140" height="60" as="geometry" />
        </mxCell>
        <mxCell id="bQEJJnBmIu3E98YJRiuJ-17" value="" style="group;fontSize=16;" parent="1" vertex="1" connectable="0">
          <mxGeometry x="426" y="190" width="140" height="60" as="geometry" />
        </mxCell>
        <mxCell id="bQEJJnBmIu3E98YJRiuJ-18" value="&lt;span style=&quot;color: rgba(0, 0, 0, 0); font-family: monospace; text-align: start; text-wrap-mode: nowrap;&quot;&gt;А&lt;/span&gt;" style="strokeWidth=2;html=1;shape=mxgraph.flowchart.terminator;whiteSpace=wrap;fontSize=16;" parent="bQEJJnBmIu3E98YJRiuJ-17" vertex="1">
          <mxGeometry width="140" height="60" as="geometry" />
        </mxCell>
        <mxCell id="bQEJJnBmIu3E98YJRiuJ-19" value="begin" style="text;html=1;align=center;verticalAlign=middle;whiteSpace=wrap;rounded=0;fontSize=16;" parent="bQEJJnBmIu3E98YJRiuJ-17" vertex="1">
          <mxGeometry x="40" y="15" width="60" height="30" as="geometry" />
        </mxCell>
        <mxCell id="bQEJJnBmIu3E98YJRiuJ-20" style="edgeStyle=orthogonalEdgeStyle;rounded=0;orthogonalLoop=1;jettySize=auto;html=1;fontSize=16;" parent="1" source="bQEJJnBmIu3E98YJRiuJ-18" target="bQEJJnBmIu3E98YJRiuJ-16" edge="1">
          <mxGeometry relative="1" as="geometry" />
        </mxCell>
        <mxCell id="bQEJJnBmIu3E98YJRiuJ-21" style="edgeStyle=orthogonalEdgeStyle;rounded=0;orthogonalLoop=1;jettySize=auto;html=1;fontSize=16;" parent="1" source="bQEJJnBmIu3E98YJRiuJ-14" edge="1">
          <mxGeometry relative="1" as="geometry">
            <mxPoint x="496" y="450" as="sourcePoint" />
            <mxPoint x="496" y="490" as="targetPoint" />
          </mxGeometry>
        </mxCell>
        <mxCell id="n57XD4TGkqFXCgxhxuNE-1" value="&lt;font style=&quot;font-size: 16px;&quot;&gt;A,B&lt;/font&gt;" style="shape=document;whiteSpace=wrap;html=1;boundedLbl=1;" vertex="1" parent="1">
          <mxGeometry x="436" y="680" width="120" height="80" as="geometry" />
        </mxCell>
        <mxCell id="n57XD4TGkqFXCgxhxuNE-2" value="" style="group;fontSize=16;" vertex="1" connectable="0" parent="1">
          <mxGeometry x="426" y="790" width="140" height="60" as="geometry" />
        </mxCell>
        <mxCell id="n57XD4TGkqFXCgxhxuNE-3" value="&lt;span style=&quot;color: rgba(0, 0, 0, 0); font-family: monospace; text-align: start; text-wrap-mode: nowrap;&quot;&gt;А&lt;/span&gt;" style="strokeWidth=2;html=1;shape=mxgraph.flowchart.terminator;whiteSpace=wrap;fontSize=16;" vertex="1" parent="n57XD4TGkqFXCgxhxuNE-2">
          <mxGeometry width="140" height="60" as="geometry" />
        </mxCell>
        <mxCell id="n57XD4TGkqFXCgxhxuNE-4" value="end" style="text;html=1;align=center;verticalAlign=middle;whiteSpace=wrap;rounded=0;fontSize=16;" vertex="1" parent="n57XD4TGkqFXCgxhxuNE-2">
          <mxGeometry x="40" y="15" width="60" height="30" as="geometry" />
        </mxCell>
        <mxCell id="n57XD4TGkqFXCgxhxuNE-7" style="edgeStyle=orthogonalEdgeStyle;rounded=0;orthogonalLoop=1;jettySize=auto;html=1;fontSize=16;exitX=0.529;exitY=0.796;exitDx=0;exitDy=0;exitPerimeter=0;" edge="1" parent="1" source="n57XD4TGkqFXCgxhxuNE-1">
          <mxGeometry relative="1" as="geometry">
            <mxPoint x="495.82" y="750" as="sourcePoint" />
            <mxPoint x="495.82" y="790" as="targetPoint" />
            <Array as="points">
              <mxPoint x="500" y="770" />
              <mxPoint x="496" y="770" />
            </Array>
          </mxGeometry>
        </mxCell>
        <mxCell id="n57XD4TGkqFXCgxhxuNE-9" value="A = B" style="rounded=0;whiteSpace=wrap;html=1;fontSize=16;" vertex="1" parent="1">
          <mxGeometry x="426" y="490" width="140" height="60" as="geometry" />
        </mxCell>
        <mxCell id="n57XD4TGkqFXCgxhxuNE-10" style="edgeStyle=orthogonalEdgeStyle;rounded=0;orthogonalLoop=1;jettySize=auto;html=1;fontSize=16;" edge="1" parent="1">
          <mxGeometry relative="1" as="geometry">
            <mxPoint x="496" y="550" as="sourcePoint" />
            <mxPoint x="496" y="590" as="targetPoint" />
          </mxGeometry>
        </mxCell>
        <mxCell id="n57XD4TGkqFXCgxhxuNE-11" value="B = temp" style="rounded=0;whiteSpace=wrap;html=1;fontSize=16;" vertex="1" parent="1">
          <mxGeometry x="426" y="590" width="140" height="60" as="geometry" />
        </mxCell>
        <mxCell id="n57XD4TGkqFXCgxhxuNE-12" style="edgeStyle=orthogonalEdgeStyle;rounded=0;orthogonalLoop=1;jettySize=auto;html=1;fontSize=16;exitX=0.5;exitY=1;exitDx=0;exitDy=0;" edge="1" parent="1" source="n57XD4TGkqFXCgxhxuNE-11">
          <mxGeometry relative="1" as="geometry">
            <mxPoint x="494" y="641" as="sourcePoint" />
            <mxPoint x="494" y="681" as="targetPoint" />
          </mxGeometry>
        </mxCell>
      </root>
    </mxGraphModel>
  </diagram>
</mxfile>
